/* XPM */
static char *result[] = {
/* columns rows colors chars-per-pixel */
"50 50 5 1 ",
"  c #EAA56C",
". c #262B44",
"X c #8B9BB4",
"o c #C0CBDC",
"O c #52607C",
/* pixels */
"   ....XXooooooooooooooooooooooooooooooooooooooooo",
"   ....OOOOOOOOOOOOOOOOOOOOOOOOOOOOOOOOOOOOOOOOOOO",
"   ....OOOOOOOOOOOOOOOOOOOOOOOOOOOOOOOOOOOOOOOOOOO",
"   ....ooXXXXXXXXXXXXXXXXXXXXXXXXXXXXXXXXXXXXXXXXX",
"   ....ooXXXXXXXXXXXXXXXXXXXXXXXXXXXXXXXXXXXXXXXXX",
"   ....ooXXXXXXXXXXXXXXXXXXXXXXXXXXXXXXXXXXXXXXXXX",
"   ....ooXXXXXXXXXXXXXXXXXXXXXXXXXXXXXXXXXXXXXXXXX",
"   ....XXooooooooooooooooooooooooooooooooooooooooo",
"   ....XXooooooooooooooooooooooooooooooooooooooooo",
"   ....OOOOOOOOOOOOOOOOOOOOOOOOOOOOOOOOOOOOOOOOOOO",
"   ....OOOOOOOOOOOOOOOOOOOOOOOOOOOOOOOOOOOOOOOOOOO",
"   ....ooXXXXXXXXXXXXXXXXXXXXXXXXXXXXXXXXXXXXXXXXX",
"   ....ooXXXXXXXXXXXXXXXXXXXXXXXXXXXXXXXXXXXXXXXXX",
"   ....ooXXXXXXXXXXXXXXooXXXXXXXXXXXXXXXXXXXXXXXXX",
"   ....ooXXXXXXXXXXXXXXooXXXXXXXXXXXXXXXXXXXXXXXXX",
"   ....XXooooooooooooooooooooooooooooooooooooooooo",
"   ....XXooooooooooooooooooooooooooooooooooooooooo",
"   ....OOOOOOOOOOOOOOOOOOOOOOOOOOOOOOOOOOOOOOOOOOO",
"   ....OOOOOOOOOOOOOOOOOOOOOOOOOOOOOOOOOOOOOOOOOOO",
"   ....ooXXXXXXXXXXXXXXXXXXXXXXXXXXXXXXXXXXXXXXXXX",
"   ....ooXXXXXXXXXXXXXXXXXXXXXXXXXXXXXXXXXXXXXXXXX",
"   ....ooXXXXXXXXXXXXXXXXXXXXXXXXXXXXXXXXXXXXXXXXX",
"   ....ooXXXXXXXXXXXXXXXXXXXXXXXXXXXXXXXXXXXXXXXXX",
"   ....XXooooooooooooooooooooooooooooooooooooooooo",
"   ....XXooooooooooooooooooooooooooooooooooooooooo",
"   ....OOOOOOOOOOOOOOOOOOOOOOOOOOOOOOOOOOOOOOOOOOO",
"   ....OOOOOOOOOOOOOOOOOOOOOOOOOOOOOOOOOOOOOOOOOOO",
"   ....ooXXXXXXXXXXXXXXXXXXXXXXXXXXXXXXXXXXXXXXXXX",
"   ....ooXXXXXXXXXXXXXXXXXXXXXXXXXXXXXXXXXXXXXXXXX",
"   ....ooXXXXXXXXXXXXXXooXXXXXXXXXXXXXXXXXXXXXXXXX",
"   ....ooXXXXXXXXXXXXXXooXXXXXXXXXXXXXXXXXXXXXXXXX",
"   ....XXooooooooooooooooooooooooooooooooooooooooo",
"   ....XXooooooooooooooooooooooooooooooooooooooooo",
"   ....OOOOOOOOOOOOOOOOOOOOOOOOOOOOOOOOOOOOOOOOOOO",
"   ....OOOOOOOOOOOOOOOOOOOOOOOOOOOOOOOOOOOOOOOOOOO",
"   ....ooXXXXXXXXXXXXXXXXXXXXXXXXXXXXXXXXXXXXXXXXX",
"   ....ooXXXXXXXXXXXXXXXXXXXXXXXXXXXXXXXXXXXXXXXXX",
"   ....ooXXXXXXXXXXXXXXXXXXXXXXXXXXXXXXXXXXXXXXXXX",
"   ....ooXXXXXXXXXXXXXXXXXXXXXXXXXXXXXXXXXXXXXXXXX",
"   ....XXooooooooooooooooooooooooooooooooooooooooo",
"   ....XXooooooooooooooooooooooooooooooooooooooooo",
"   ....OOOOOOOOOOOOOOOOOOOOOOOOOOOOOOOOOOOOOOOOOOO",
"   ....OOOOOOOOOOOOOOOOOOOOOOOOOOOOOOOOOOOOOOOOOOO",
"   ....ooXXXXXXXXXXXXXXXXXXXXXXXXXXXXXXXXXXXXXXXXX",
"   ....ooXXXXXXXXXXXXXXXXXXXXXXXXXXXXXXXXXXXXXXXXX",
"   ....ooXXXXXXXXXXXXXXooXXXXXXXXXXXXXXXXXXXXXXXXX",
"   ....ooXXXXXXXXXXXXXXooXXXXXXXXXXXXXXXXXXXXXXXXX",
"   ....XXooooooooooooooXXooooooooooooooooooooooooo",
"   ....XXooooooooooooooXXooooooooooooooooooooooooo",
"   ....OOOOOOOOOOOOOOOOOOOOOOOOOOOOOOOOOOOOOOOOOOO"
};
