/* XPM */
static char *result[] = {
/* columns rows colors chars-per-pixel */
"50 50 5 1 ",
"  c #C0CBDC",
". c #8B9BB4",
"X c #262B44",
"o c #EAA56C",
"O c #52607C",
/* pixels */
"                                        ..XXXXoooo",
"OOOOOOOOOOOOOOOOOOOOOOOOOOOOOOOOOOOOOOOOOOXXXXoooo",
"OOOOOOOOOOOOOOOOOOOOOOOOOOOOOOOOOOOOOOOOOOXXXXoooo",
"........................................  XXXXoooo",
"........................................  XXXXoooo",
"........................................  XXXXoooo",
"........................................  XXXXoooo",
"                                        ..XXXXoooo",
"                                        ..XXXXoooo",
"OOOOOOOOOOOOOOOOOOOOOOOOOOOOOOOOOOOOOOOOOOXXXXoooo",
"OOOOOOOOOOOOOOOOOOOOOOOOOOOOOOOOOOOOOOOOOOXXXXoooo",
"........................................  XXXXoooo",
"........................................  XXXXoooo",
"........................  ..............  XXXXoooo",
"........................  ..............  XXXXoooo",
"                                        ..XXXXoooo",
"                                        ..XXXXoooo",
"OOOOOOOOOOOOOOOOOOOOOOOOOOOOOOOOOOOOOOOOOOXXXXoooo",
"OOOOOOOOOOOOOOOOOOOOOOOOOOOOOOOOOOOOOOOOOOXXXXoooo",
"........................................  XXXXoooo",
"........................................  XXXXoooo",
"........................................  XXXXoooo",
"........................................  XXXXoooo",
"                                        ..XXXXoooo",
"                                        ..XXXXoooo",
"OOOOOOOOOOOOOOOOOOOOOOOOOOOOOOOOOOOOOOOOOOXXXXoooo",
"OOOOOOOOOOOOOOOOOOOOOOOOOOOOOOOOOOOOOOOOOOXXXXoooo",
"........................................  XXXXoooo",
"........................................  XXXXoooo",
"........................  ..............  XXXXoooo",
"........................  ..............  XXXXoooo",
"                                        ..XXXXoooo",
"                                        ..XXXXoooo",
"OOOOOOOOOOOOOOOOOOOOOOOOOOOOOOOOOOOOOOOOOOXXXXoooo",
"OOOOOOOOOOOOOOOOOOOOOOOOOOOOOOOOOOOOOOOOOOXXXXoooo",
"........................................  XXXXoooo",
"........................................  XXXXoooo",
"........................................  XXXXoooo",
"........................................  XXXXoooo",
"                                        ..XXXXoooo",
"                                        ..XXXXoooo",
"OOOOOOOOOOOOOOOOOOOOOOOOOOOOOOOOOOOOOOOOOOXXXXoooo",
"OOOOOOOOOOOOOOOOOOOOOOOOOOOOOOOOOOOOOOOOOOXXXXoooo",
"........................................  XXXXoooo",
"........................................  XXXXoooo",
"........................  ..............  XXXXoooo",
"........................  ..............  XXXXoooo",
"                        ..              ..XXXXoooo",
"                        ..              ..XXXXoooo",
"OOOOOOOOOOOOOOOOOOOOOOOOOOOOOOOOOOOOOOOOOOXXXXoooo"
};
