/* XPM */
static char *result[] = {
/* columns rows colors chars-per-pixel */
"50 50 5 1 ",
"  c #EAA56C",
". c #262B44",
"X c #C0CBDC",
"o c #8B9BB4",
"O c #52607C",
/* pixels */
"       ......    ......    ......    ......       ",
"       ......    ......    ......    ......       ",
"   ............................................   ",
"   ............................................   ",
" ........XX........XX........XX........XX........ ",
" ........XX........XX........XX........XX........ ",
" ....ooOOXXOOooooOOXXOOooooOOXXOOooooOOXXOOoo.... ",
" ....ooOOXXOOooooOOXXOOooooOOXXOOooooOOXXOOoo.... ",
" ....OOXXXXooOOOOXXXXooOOOOXXXXooOOOOXXXXooOO.... ",
" ....OOXXXXooOOOOXXXXooOOOOXXXXooOOOOXXXXooOO.... ",
" ....OOXXXXooOOOOXXXXooOOOOXXXXooOOOOXXXXooOO.... ",
" ....OOXXXXooOOOOXXXXooOOOOXXXXooOOOOXXXXooOO.... ",
" ....ooooOOooooooooOOooooooooOOooooooooOOoooo.... ",
" ....ooooOOooooooooOOooooooooOOooooooooOOoooo.... ",
" ....ooOOXXOOooooOOXXOOooooOOXXOOooooOOXXOOoo.... ",
" ....ooOOXXOOooooOOXXOOooooOOXXOOooooOOXXOOoo.... ",
" ....ooOOXXOOooooOOXXOOooooOOXXOOooooOOXXOOoo.... ",
" ....ooOOXXOOooooOOXXOOooooOOXXOOooooOOXXOOoo.... ",
" ....OOXXXXooOOOOXXXXooOOOOXXXXooOOOOXXXXooOO.... ",
" ....OOXXXXooOOOOXXXXooOOOOXXXXooOOOOXXXXooOO.... ",
" ....OOXXXXooOOOOXXXXooOOOOXXXXooOOOOXXXXooOO.... ",
" ....OOXXXXooOOOOXXXXooOOOOXXXXooOOOOXXXXooOO.... ",
" ....oooooooooooooooooooooooooooooooooooooooo.... ",
" ....ooooOOooooooooOOooooooooOOooooooooOOoooo.... ",
" ....ooooOOooooooooOOooooooooOOooooooooOOoooo.... ",
" ....ooOOXXOOooooOOXXOOooooOOXXOOooooOOXXOOoo.... ",
" ....ooOOXXOOooooOOXXOOooooOOXXOOooooOOXXOOoo.... ",
" ....ooOOXXOOooooOOXXOOooooOOXXOOooooOOXXOOoo.... ",
" ....ooOOXXOOooooOOXXOOooooOOXXOOooooOOXXOOoo.... ",
" ....OOXXXXooOOOOXXXXooOOOOXXXXooOOOOXXXXooOO.... ",
" ....OOXXXXooOOOOXXXXooOOOOXXXXooOOOOXXXXooOO.... ",
" ....OOXXXXooOOOOXXXXooOOOOXXXXooOOOOXXXXooOO.... ",
" ....oooooooooooooooooooooooooooooooooooooooo.... ",
" ....ooooOOooooooooOOooooooooOOooooooooOOoooo.... ",
" ....ooooOOooooooooOOooooooooOOooooooooOOoooo.... ",
" ....ooOOXXOOooooOOXXOOooooOOXXOOooooOOXXOOoo.... ",
" ....ooOOXXOOooooOOXXOOooooOOXXOOooooOOXXOOoo.... ",
" ....ooOOXXOOooooOOXXOOooooOOXXOOooooOOXXOOoo.... ",
" ....ooOOXXOOooooOOXXOOooooOOXXOOooooOOXXOOoo.... ",
" ....OOXXXXooOOOOXXXXooOOOOXXXXooOOOOXXXXooOO.... ",
" ....OOXXXXooOOOOXXXXooOOOOXXXXooOOOOXXXXooOO.... ",
" ....OOXXXXooOOOOXXXXooOOOOXXXXooOOOOXXXXooOO.... ",
" ....OOXXXXooOOOOXXXXooOOOOXXXXooOOOOXXXXooOO.... ",
" ....oooooooooooooooooooooooooooooooooooooooo.... ",
" ....oooooooooooooooooooooooooooooooooooooooo.... ",
" ....XXXXXXXXXXXXXXXXXXXXXXXXXXXXXXXXXXXXXXXX.... ",
" ....XXXXXXXXXXXXXXXXXXXXXXXXXXXXXXXXXXXXXXXX.... ",
" ................................................ ",
" ................................................ ",
"   ............................................   "
};
