/* XPM */
static char *result[] = {
/* columns rows colors chars-per-pixel */
"50 50 5 1 ",
"  c #EAA56C",
". c #3F2631",
"X c #FDBE53",
"o c #E38628",
"O c #BD6C4A",
/* pixels */
"                                                  ",
"                   .............                  ",
"                   .............                  ",
"                 .................                ",
"                 .................                ",
"               ......XXXXXXXXX......              ",
"               ......XXXXXXXXX......              ",
"               ....XXXXXXXXXXXXX....              ",
"               ....XXXXXXXXXXXXX....              ",
"               ....XXXXXXXXXXXXX....              ",
"               ....XXXXXXXXXXXXX....              ",
"             ......XXXXXXXXXXXXX......            ",
"             ......XXXXXXXXXXXXX......            ",
"             ....XXXXooXXXXXXXXXXX....            ",
"             ....XXXXooXXXXXXXXXXX....            ",
"             ....XXXXXXXXXXXXXXXXX....            ",
"             ....XXXXXXXXXXXXXXXXX....            ",
"           ......XXooooXXXXXXXXXXX......          ",
"           ......XXooooXXXXXXXXXXX......          ",
"           ....ooXXooooXXXXXXXXXXXoo....          ",
"           ....ooXXooooXXXXXXXXXXXoo....          ",
"           ....ooXXooooXXXXXXXXXXXoo....          ",
"           ....ooXXXXXXXXXXXXXXXXXoo....          ",
"           ....ooXXXXXXXXXXXXXXXXXoo....          ",
"           ....ooXXXXXXXXXXXXXXXXXoo....          ",
"           ....ooXXXXXXXXXXXXXXXXXoo....          ",
"           ....ooooXXXXXXXXXXXXXoooo....          ",
"           ....ooooXXXXXXXXXXXXXoooo....          ",
"           ....ooooooooooooooooooooo....          ",
"           ....ooooooooooooooooooooo....          ",
"           ....ooooooooooooooooooooo....          ",
"           ....ooooooooooooooooooooo....          ",
"           ....ooooooooooooooooooooo....          ",
"           ....ooooooooooooooooooooo....          ",
"           ....ooooooooooooooooooooo....          ",
"           ....ooooooooooooooooXXooo....          ",
"           ....ooooooooooooooooXXooo....          ",
"           ....ooooooooooooooooXXooo....          ",
"           ....ooooooooooooooooooooo....          ",
"           ....ooooooooooooooooooooo....          ",
"           ....ooooooooooooooooooooo....          ",
"           ....ooooooooooooooooooooo....          ",
"           ....ooooooooooooooooooooo....          ",
"           ....ooooooooooooooooooooo....          ",
"           ......ooooooooooooooooo......          ",
"           ..........OOOOOOOOO..........          ",
"             ........OOOOOOOOO........            ",
"             ........OOOOOOOOO........            ",
"                                                  ",
"                                                  "
};
