/* XPM */
static char *result[] = {
/* columns rows colors chars-per-pixel */
"50 50 29 1 ",
"  c #EAA56C",
". c #631B4F",
"X c #F743C6",
"o c #AC2F8A",
"O c #942877",
"+ c #4A143B",
"@ c #151615",
"# c #664432",
"$ c #E59A72",
"% c black",
"& c #FFBD99",
"* c #393C3A",
"= c #2B2D2B",
"- c #4C3325",
"; c #4A1120",
": c #F7396A",
"> c #C62E55",
", c #942240",
"< c #4C1B38",
"1 c #63172A",
"2 c #CC4796",
"3 c #66244B",
"4 c #FF59BB",
"5 c #250D1B",
"6 c #5D2044",
"7 c #4A1A36",
"8 c #4C1437",
"9 c #FF43BA",
"0 c #CC3695",
/* pixels */
"                   ............                   ",
"                   ............                   ",
"                ...XXXXXXoooooo...                ",
"                ...XXXXXXoooooo...                ",
"                ...XXXXXXoooooo...                ",
"             ...XXXooooooooooooOOO...             ",
"             ...XXXooooooooooooOOO...             ",
"             ...XXXooooooooooooOOO...             ",
"             ++++++oooooooooOOOOOOOOO...          ",
"             ++++++oooooooooOOOOOOOOO...          ",
"             ++++++oooooooooOOOOOOOOO...          ",
"          ......++++++OOOOOOOOOOOOOOO...          ",
"          ......++++++OOOOOOOOOOOOOOO...          ",
"          ......++++++OOOOOOOOOOOOOOO...          ",
"       +++++++++++++++...............@@@          ",
"       +++++++++++++++...............@@@          ",
"       +++++++++++++++...............@@@          ",
"             ###$$$%%%&&&******======@@@          ",
"             ###$$$%%%&&&******======@@@          ",
"             ###$$$%%%&&&******======@@@          ",
"             ---$$$%%%$$$***============@@@       ",
"             ---$$$%%%$$$***============@@@       ",
"             ---$$$%%%$$$***============@@@       ",
"                ---$$$==================@@@       ",
"                ---$$$==================@@@       ",
"                ---$$$==================@@@       ",
"                   ---@@@@@@@@@@@@@@@@@@          ",
"                   ---@@@@@@@@@@@@@@@@@@          ",
"                   ---@@@@@@@@@@@@@@@@@@          ",
"                ;;;:::>>>>>>,,,<<<                ",
"                ;;;:::>>>>>>,,,<<<                ",
"                ;;;:::>>>>>>,,,<<<                ",
"             <<<111>>>>>>:::222222333             ",
"             <<<111>>>>>>:::222222333             ",
"             <<<111>>>>>>:::222222333             ",
"             <<<111>>>>>>333444222333             ",
"             <<<111>>>>>>333444222333             ",
"             <<<111>>>>>>333444222333             ",
"                555666666777333333                ",
"                555666666777333333                ",
"                555666666777333333                ",
"             888999999777555000000888             ",
"             888999999777555000000888             ",
"             888999999777555000000888             ",
"             888999000555555000000888             ",
"             888999000555555000000888             ",
"             888999000555555000000888             ",
"                888888      888888                ",
"                888888      888888                ",
"                888888      888888                "
};
