/* XPM */
static char *result[] = {
/* columns rows colors chars-per-pixel */
"50 50 28 1 ",
"  c #EAA56C",
". c #631B4F",
"X c #F743C6",
"o c #AC2F8A",
"O c #942877",
"+ c #4A143B",
"@ c #151615",
"# c #664432",
"$ c #E59A72",
"% c black",
"& c #FFBD99",
"* c #393C3A",
"= c #2B2D2B",
"- c #4C3325",
"; c #4C1B38",
": c #942240",
"> c #C62E55",
", c #4A1120",
"< c #66244B",
"1 c #FF59BB",
"2 c #CC4796",
"3 c #63172A",
"4 c #4A1A36",
"5 c #5D2044",
"6 c #250D1B",
"7 c #4C1437",
"8 c #CC3695",
"9 c #FF43BA",
/* pixels */
"                   ............                   ",
"                   ............                   ",
"                ...XXXXXXoooooo...                ",
"                ...XXXXXXoooooo...                ",
"                ...XXXXXXoooooo...                ",
"             ...XXXooooooooooooOOO...             ",
"             ...XXXooooooooooooOOO...             ",
"             ...XXXooooooooooooOOO...             ",
"             ++++++oooooooooOOOOOOOOO...          ",
"             ++++++oooooooooOOOOOOOOO...          ",
"             ++++++oooooooooOOOOOOOOO...          ",
"          ......++++++OOOOOOOOOOOOOOO...          ",
"          ......++++++OOOOOOOOOOOOOOO...          ",
"          ......++++++OOOOOOOOOOOOOOO...          ",
"       +++++++++++++++...............@@@          ",
"       +++++++++++++++...............@@@          ",
"       +++++++++++++++...............@@@          ",
"             ###$$$%%%&&&******======@@@          ",
"             ###$$$%%%&&&******======@@@          ",
"             ###$$$%%%&&&******======@@@          ",
"             ---$$$%%%$$$***============@@@       ",
"             ---$$$%%%$$$***============@@@       ",
"             ---$$$%%%$$$***============@@@       ",
"                ---$$$==================@@@       ",
"                ---$$$==================@@@       ",
"                ---$$$==================@@@       ",
"                   ---@@@@@@@@@@@@@@@@@@          ",
"                   ---@@@@@@@@@@@@@@@@@@          ",
"                   ---@@@@@@@@@@@@@@@@@@          ",
"                ;;;:::>>>>>>:::,,,                ",
"                ;;;:::>>>>>>:::,,,                ",
"                ;;;:::>>>>>>:::,,,                ",
"             <<<111222>>>>>>:::333;;;             ",
"             <<<111222>>>>>>:::333;;;             ",
"             <<<111222>>>>>>:::333;;;             ",
"             <<<111222;;;>>>:::333;;;             ",
"             <<<111222;;;>>>:::333;;;             ",
"             <<<111222;;;>>>:::333;;;             ",
"                <<<;;;444444555666                ",
"                <<<;;;444444555666                ",
"                <<<;;;444444555666                ",
"             777888888666444999999777             ",
"             777888888666444999999777             ",
"             777888888666444999999777             ",
"             777888888666666888888777             ",
"             777888888666666888888777             ",
"             777888888666666888888777             ",
"                777777      777777                ",
"                777777      777777                ",
"                777777      777777                "
};
