/* XPM */
static char *result[] = {
/* columns rows colors chars-per-pixel */
"50 50 22 1 ",
"  c #EAA56C",
". c #631B4F",
"X c #F743C6",
"o c #AC2F8A",
"O c #942877",
"+ c #151615",
"@ c #4A143B",
"# c #2B2D2B",
"$ c #4C1B38",
"% c #993570",
"& c #CC4796",
"* c #942240",
"= c #66244B",
"- c #C62E55",
"; c #FF59BB",
": c #63172A",
"> c #4A1A36",
", c #5D2044",
"< c #250D1B",
"1 c #1C0A14",
"2 c #4C1437",
"3 c #CC3695",
/* pixels */
"                   ............                   ",
"                   ............                   ",
"                ...XXXooooooXXX...                ",
"                ...XXXooooooXXX...                ",
"                ...XXXooooooXXX...                ",
"             ...XXXooooooooooooXXX...             ",
"             ...XXXooooooooooooXXX...             ",
"             ...XXXooooooooooooXXX...             ",
"          ...ooooooOOOOOOOOOOOOoooooo...          ",
"          ...ooooooOOOOOOOOOOOOoooooo...          ",
"          ...ooooooOOOOOOOOOOOOoooooo...          ",
"          ...OOOOOOOOOOOOOOOOOOOOOOOO...          ",
"          ...OOOOOOOOOOOOOOOOOOOOOOOO...          ",
"          ...OOOOOOOOOOOOOOOOOOOOOOOO...          ",
"          +++@@@OOOOOOOOOOOOOOOOOO@@@+++          ",
"          +++@@@OOOOOOOOOOOOOOOOOO@@@+++          ",
"          +++@@@OOOOOOOOOOOOOOOOOO@@@+++          ",
"          +++###@@@............@@@###+++          ",
"          +++###@@@............@@@###+++          ",
"          +++###@@@............@@@###+++          ",
"       +++#########@@@@@@@@@@@@#########+++       ",
"       +++#########@@@@@@@@@@@@#########+++       ",
"       +++#########@@@@@@@@@@@@#########+++       ",
"       +++##############################+++       ",
"       +++##############################+++       ",
"       +++##############################+++       ",
"          ++++++++++++++++++++++++++++++          ",
"          ++++++++++++++++++++++++++++++          ",
"          ++++++++++++++++++++++++++++++          ",
"          $$$%%%&&&***************%%%$$$          ",
"          $$$%%%&&&***************%%%$$$          ",
"          $$$%%%&&&***************%%%$$$          ",
"          ===&&&&&&===------------***$$$          ",
"          ===&&&&&&===------------***$$$          ",
"          ===&&&&&&===------------***$$$          ",
"          ===;;;&&&===------------:::$$$          ",
"          ===;;;&&&===------------:::$$$          ",
"          ===;;;&&&===------------:::$$$          ",
"             ======>>>,,,,,,,,,,,,<<<             ",
"             ======>>>,,,,,,,,,,,,<<<             ",
"             ======>>>,,,,,,,,,,,,<<<             ",
"                111>>>>>>>>>,,,,,,<<<             ",
"                111>>>>>>>>>,,,,,,<<<             ",
"                111>>>>>>>>>,,,,,,<<<             ",
"                   222<<<<<<333333222             ",
"                   222<<<<<<333333222             ",
"                   222<<<<<<333333222             ",
"                            222222                ",
"                            222222                ",
"                            222222                "
};
