/* XPM */
static char *result[] = {
/* columns rows colors chars-per-pixel */
"50 50 20 1 ",
"  c #EAA56C",
". c #631B4F",
"X c #F743C6",
"o c #AC2F8A",
"O c #942877",
"+ c #151615",
"@ c #4A143B",
"# c #2B2D2B",
"$ c #4C1B38",
"% c #993570",
"& c #C62E55",
"* c #942240",
"= c #66244B",
"- c #CC4796",
"; c #FF59BB",
": c #5D2044",
"> c #250D1B",
", c #4A1A36",
"< c #4C1437",
"1 c #CC3695",
/* pixels */
"                   ............                   ",
"                   ............                   ",
"                ...XXXooooooXXX...                ",
"                ...XXXooooooXXX...                ",
"                ...XXXooooooXXX...                ",
"             ...XXXooooooooooooXXX...             ",
"             ...XXXooooooooooooXXX...             ",
"             ...XXXooooooooooooXXX...             ",
"          ...ooooooOOOOOOOOOOOOoooooo...          ",
"          ...ooooooOOOOOOOOOOOOoooooo...          ",
"          ...ooooooOOOOOOOOOOOOoooooo...          ",
"          ...OOOOOOOOOOOOOOOOOOOOOOOO...          ",
"          ...OOOOOOOOOOOOOOOOOOOOOOOO...          ",
"          ...OOOOOOOOOOOOOOOOOOOOOOOO...          ",
"          +++@@@OOOOOOOOOOOOOOOOOO@@@+++          ",
"          +++@@@OOOOOOOOOOOOOOOOOO@@@+++          ",
"          +++@@@OOOOOOOOOOOOOOOOOO@@@+++          ",
"          +++###@@@............@@@###+++          ",
"          +++###@@@............@@@###+++          ",
"          +++###@@@............@@@###+++          ",
"       +++#########@@@@@@@@@@@@#########+++       ",
"       +++#########@@@@@@@@@@@@#########+++       ",
"       +++#########@@@@@@@@@@@@#########+++       ",
"       +++##############################+++       ",
"       +++##############################+++       ",
"       +++##############################+++       ",
"          ++++++++++++++++++++++++++++++          ",
"          ++++++++++++++++++++++++++++++          ",
"          ++++++++++++++++++++++++++++++          ",
"          $$$%%%&&&************&&&%%%$$$          ",
"          $$$%%%&&&************&&&%%%$$$          ",
"          $$$%%%&&&************&&&%%%$$$          ",
"       ===------&&&&&&&&&&&&&&&&&&------===       ",
"       ===------&&&&&&&&&&&&&&&&&&------===       ",
"       ===------&&&&&&&&&&&&&&&&&&------===       ",
"       ===;;;---===&&&&&&&&&&&&===---;;;===       ",
"       ===;;;---===&&&&&&&&&&&&===---;;;===       ",
"       ===;;;---===&&&&&&&&&&&&===---;;;===       ",
"          ======::::::::::::::::::======          ",
"          ======::::::::::::::::::======          ",
"          ======::::::::::::::::::======          ",
"             >>>::::::,,,,,,::::::>>>             ",
"             >>>::::::,,,,,,::::::>>>             ",
"             >>>::::::,,,,,,::::::>>>             ",
"             <<<111111>>>>>>111111<<<             ",
"             <<<111111>>>>>>111111<<<             ",
"             <<<111111>>>>>>111111<<<             ",
"                <<<<<<      <<<<<<                ",
"                <<<<<<      <<<<<<                ",
"                <<<<<<      <<<<<<                "
};
