/* XPM */
static char *result[] = {
/* columns rows colors chars-per-pixel */
"50 50 4 1 ",
"  c #C0CBDC",
". c #8B9BB4",
"X c #262B44",
"o c #52607C",
/* pixels */
"                                            ..XXXX",
"ooooooooooooooooooooooooooooooooooooooooooooooXXXX",
"ooooooooooooooooooooooooooooooooooooooooooooooXXXX",
"............................................  XXXX",
"............................................  XXXX",
"............................................  XXXX",
"............................................  XXXX",
"                                            ..XXXX",
"                                            ..XXXX",
"ooooooooooooooooooooooooooooooooooooooooooooooXXXX",
"ooooooooooooooooooooooooooooooooooooooooooooooXXXX",
"............................................  XXXX",
"............................................  XXXX",
"............................  ..............  XXXX",
"............................  ..............  XXXX",
"                                            ..XXXX",
"                                            ..XXXX",
"ooooooooooooooooooooooooooooooooooooooooooooooXXXX",
"ooooooooooooooooooooooooooooooooooooooooooooooXXXX",
"............................................  XXXX",
"............................................  XXXX",
"............................................  XXXX",
"............................................  XXXX",
"                                            ..XXXX",
"                                            ..XXXX",
"ooooooooooooooooooooooooooooooooooooooooooooooXXXX",
"ooooooooooooooooooooooooooooooooooooooooooooooXXXX",
"............................................  XXXX",
"............................................  XXXX",
"............................  ..............  XXXX",
"............................  ..............  XXXX",
"                                            ..XXXX",
"                                            ..XXXX",
"ooooooooooooooooooooooooooooooooooooooooooooooXXXX",
"ooooooooooooooooooooooooooooooooooooooooooooooXXXX",
"............................................  XXXX",
"............................................  XXXX",
"............................................  XXXX",
"............................................  XXXX",
"                                            ..XXXX",
"                                            ..XXXX",
"ooooooooooooooooooooooooooooooooooooooooooooooXXXX",
"ooooooooooooooooooooooooooooooooooooooooooooooXXXX",
"............................................  XXXX",
"............................................  XXXX",
"............................  ..............  XXXX",
"............................  ..............  XXXX",
"                            ..              ..XXXX",
"                            ..              ..XXXX",
"ooooooooooooooooooooooooooooooooooooooooooooooXXXX"
};
