/* XPM */
static char *result[] = {
/* columns rows colors chars-per-pixel */
"50 50 28 1 ",
"  c #EAA56C",
". c #631B4F",
"X c #AC2F8A",
"o c #F743C6",
"O c #942877",
"+ c #4A143B",
"@ c #151615",
"# c #2B2D2B",
"$ c #393C3A",
"% c #FFBD99",
"& c black",
"* c #E59A72",
"= c #664432",
"- c #4C3325",
"; c #4A1120",
": c #942240",
"> c #C62E55",
", c #4C1B38",
"< c #63172A",
"1 c #CC4796",
"2 c #FF59BB",
"3 c #66244B",
"4 c #250D1B",
"5 c #5D2044",
"6 c #4A1A36",
"7 c #4C1437",
"8 c #FF43BA",
"9 c #CC3695",
/* pixels */
"                   ............                   ",
"                   ............                   ",
"                ...XXXXXXoooooo...                ",
"                ...XXXXXXoooooo...                ",
"                ...XXXXXXoooooo...                ",
"             ...OOOXXXXXXXXXXXXooo...             ",
"             ...OOOXXXXXXXXXXXXooo...             ",
"             ...OOOXXXXXXXXXXXXooo...             ",
"          ...OOOOOOOOOXXXXXXXXX++++++             ",
"          ...OOOOOOOOOXXXXXXXXX++++++             ",
"          ...OOOOOOOOOXXXXXXXXX++++++             ",
"          ...OOOOOOOOOOOOOOO++++++......          ",
"          ...OOOOOOOOOOOOOOO++++++......          ",
"          ...OOOOOOOOOOOOOOO++++++......          ",
"          @@@...............+++++++++++++++       ",
"          @@@...............+++++++++++++++       ",
"          @@@...............+++++++++++++++       ",
"          @@@######$$$$$$%%%&&&***===             ",
"          @@@######$$$$$$%%%&&&***===             ",
"          @@@######$$$$$$%%%&&&***===             ",
"       @@@############$$$***&&&***---             ",
"       @@@############$$$***&&&***---             ",
"       @@@############$$$***&&&***---             ",
"       @@@##################***---                ",
"       @@@##################***---                ",
"       @@@##################***---                ",
"          @@@@@@@@@@@@@@@@@@---                   ",
"          @@@@@@@@@@@@@@@@@@---                   ",
"          @@@@@@@@@@@@@@@@@@---                   ",
"                ;;;:::>>>>>>:::,,,                ",
"                ;;;:::>>>>>>:::,,,                ",
"                ;;;:::>>>>>>:::,,,                ",
"             ,,,<<<:::>>>>>>111222333             ",
"             ,,,<<<:::>>>>>>111222333             ",
"             ,,,<<<:::>>>>>>111222333             ",
"             ,,,<<<:::>>>,,,111222333             ",
"             ,,,<<<:::>>>,,,111222333             ",
"             ,,,<<<:::>>>,,,111222333             ",
"                444555666666,,,333                ",
"                444555666666,,,333                ",
"                444555666666,,,333                ",
"             777888888666444999999777             ",
"             777888888666444999999777             ",
"             777888888666444999999777             ",
"             777999999444444999999777             ",
"             777999999444444999999777             ",
"             777999999444444999999777             ",
"                777777      777777                ",
"                777777      777777                ",
"                777777      777777                "
};
