/* XPM */
static char *result[] = {
/* columns rows colors chars-per-pixel */
"50 50 8 1 ",
"  c #EAA56C",
". c #3F2631",
"X c #BD6C4A",
"o c #8B9BB4",
"O c #C0CBDC",
"+ c #FF59BB",
"@ c #AC2F8A",
"# c #CF8254",
/* pixels */
"                                                  ",
"                                                  ",
"                                                  ",
"                                                  ",
"                                                  ",
"                                                  ",
"                   ............                   ",
"                   ............                   ",
"                 ................                 ",
"                 ................                 ",
"                 ....XX    XX....                 ",
"                 ....XX    XX....                 ",
"                 ....XX    XX....                 ",
"                 ....XX    XX....                 ",
"                 ......oooo......                 ",
"                 ......oooo......                 ",
"                 ......OOOO......                 ",
"                 ......OOOO......                 ",
"               ......++++++++......               ",
"               ......++++++++......               ",
"               ....@@++++++++@@....               ",
"               ....@@++++++++@@....               ",
"               ....@@@@@@@@@@@@....               ",
"               ....@@@@@@@@@@@@....               ",
"               ....@@@@@@@@@@@@....               ",
"               ....@@@@@@@@@@@@....               ",
"               ......@@@@@@@@......               ",
"               ......@@@@@@@@......               ",
"                 ................                 ",
"                 ................                 ",
"                   ............                   ",
"                   ............                   ",
"                                                  ",
"                                                  ",
"                                                  ",
"                                                  ",
"                                                  ",
"                                                  ",
"                                                  ",
"                        #####                     ",
"                      #########                   ",
"                     ############                 ",
"                     ############                 ",
"                     ############                 ",
"                       #########                  ",
"                         #####                    ",
"                                                  ",
"                                                  ",
"                                                  ",
"                                                  "
};
