/* XPM */
static char *result[] = {
/* columns rows colors chars-per-pixel */
"50 50 29 1 ",
"  c #EAA56C",
". c #631B4F",
"X c #AC2F8A",
"o c #F743C6",
"O c #942877",
"+ c #4A143B",
"@ c #151615",
"# c #2B2D2B",
"$ c #393C3A",
"% c #FFBD99",
"& c black",
"* c #E59A72",
"= c #664432",
"- c #4C3325",
"; c #4C1B38",
": c #942240",
"> c #C62E55",
", c #F7396A",
"< c #4A1120",
"1 c #66244B",
"2 c #CC4796",
"3 c #63172A",
"4 c #FF59BB",
"5 c #4A1A36",
"6 c #5D2044",
"7 c #250D1B",
"8 c #4C1437",
"9 c #CC3695",
"0 c #FF43BA",
/* pixels */
"                   ............                   ",
"                   ............                   ",
"                ...XXXXXXoooooo...                ",
"                ...XXXXXXoooooo...                ",
"                ...XXXXXXoooooo...                ",
"             ...OOOXXXXXXXXXXXXooo...             ",
"             ...OOOXXXXXXXXXXXXooo...             ",
"             ...OOOXXXXXXXXXXXXooo...             ",
"          ...OOOOOOOOOXXXXXXXXX++++++             ",
"          ...OOOOOOOOOXXXXXXXXX++++++             ",
"          ...OOOOOOOOOXXXXXXXXX++++++             ",
"          ...OOOOOOOOOOOOOOO++++++......          ",
"          ...OOOOOOOOOOOOOOO++++++......          ",
"          ...OOOOOOOOOOOOOOO++++++......          ",
"          @@@...............+++++++++++++++       ",
"          @@@...............+++++++++++++++       ",
"          @@@...............+++++++++++++++       ",
"          @@@######$$$$$$%%%&&&***===             ",
"          @@@######$$$$$$%%%&&&***===             ",
"          @@@######$$$$$$%%%&&&***===             ",
"       @@@############$$$***&&&***---             ",
"       @@@############$$$***&&&***---             ",
"       @@@############$$$***&&&***---             ",
"       @@@##################***---                ",
"       @@@##################***---                ",
"       @@@##################***---                ",
"          @@@@@@@@@@@@@@@@@@---                   ",
"          @@@@@@@@@@@@@@@@@@---                   ",
"          @@@@@@@@@@@@@@@@@@---                   ",
"                ;;;:::>>>>>>,,,<<<                ",
"                ;;;:::>>>>>>,,,<<<                ",
"                ;;;:::>>>>>>,,,<<<                ",
"             111222222,,,>>>>>>333;;;             ",
"             111222222,,,>>>>>>333;;;             ",
"             111222222,,,>>>>>>333;;;             ",
"             111222444111>>>>>>333;;;             ",
"             111222444111>>>>>>333;;;             ",
"             111222444111>>>>>>333;;;             ",
"                111111555666666777                ",
"                111111555666666777                ",
"                111111555666666777                ",
"             888999999777555000000888             ",
"             888999999777555000000888             ",
"             888999999777555000000888             ",
"             888999999777777999000888             ",
"             888999999777777999000888             ",
"             888999999777777999000888             ",
"                888888      888888                ",
"                888888      888888                ",
"                888888      888888                "
};
