/* XPM */
static char *result[] = {
/* columns rows colors chars-per-pixel */
"50 50 27 1 ",
"  c #EAA56C",
". c #631B4F",
"X c #AC2F8A",
"o c #F743C6",
"O c #942877",
"+ c #4A143B",
"@ c #151615",
"# c #2B2D2B",
"$ c #393C3A",
"% c #FFBD99",
"& c black",
"* c #E59A72",
"= c #664432",
"- c #4C3325",
"; c #4A1120",
": c #63172A",
"> c #942240",
", c #66244B",
"< c #CC4796",
"1 c #FF59BB",
"2 c #250D1B",
"3 c #4A1A36",
"4 c #4C1B38",
"5 c #5D2044",
"6 c #4C1437",
"7 c #CC3695",
"8 c #661B4A",
/* pixels */
"                   ............                   ",
"                   ............                   ",
"                ...XXXXXXoooooo...                ",
"                ...XXXXXXoooooo...                ",
"                ...XXXXXXoooooo...                ",
"             ...OOOXXXXXXXXXXXXooo...             ",
"             ...OOOXXXXXXXXXXXXooo...             ",
"             ...OOOXXXXXXXXXXXXooo...             ",
"          ...OOOOOOOOOXXXXXXXXX++++++             ",
"          ...OOOOOOOOOXXXXXXXXX++++++             ",
"          ...OOOOOOOOOXXXXXXXXX++++++             ",
"          ...OOOOOOOOOOOOOOO++++++......          ",
"          ...OOOOOOOOOOOOOOO++++++......          ",
"          ...OOOOOOOOOOOOOOO++++++......          ",
"          @@@...............+++++++++++++++       ",
"          @@@...............+++++++++++++++       ",
"          @@@...............+++++++++++++++       ",
"          @@@######$$$$$$%%%&&&***===             ",
"          @@@######$$$$$$%%%&&&***===             ",
"          @@@######$$$$$$%%%&&&***===             ",
"       @@@############$$$***&&&***---             ",
"       @@@############$$$***&&&***---             ",
"       @@@############$$$***&&&***---             ",
"       @@@##################***---                ",
"       @@@##################***---                ",
"       @@@##################***---                ",
"          @@@@@@@@@@@@@@@@@@---                   ",
"          @@@@@@@@@@@@@@@@@@---                   ",
"          @@@@@@@@@@@@@@@@@@---                   ",
"                ;;;:::>>>>>>>>>;;;                ",
"                ;;;:::>>>>>>>>>;;;                ",
"                ;;;:::>>>>>>>>>;;;                ",
"                ;;;,,,<<<111,,,;;;                ",
"                ;;;,,,<<<111,,,;;;                ",
"                ;;;,,,<<<111,,,;;;                ",
"                ;;;,,,<<<111,,,;;;                ",
"                ;;;,,,<<<111,,,;;;                ",
"                ;;;,,,<<<111,,,;;;                ",
"                222333444,,,555222                ",
"                222333444,,,555222                ",
"                222333444,,,555222                ",
"                222333333555555222                ",
"                222333333555555222                ",
"                222333333555555222                ",
"                   666777777888                   ",
"                   666777777888                   ",
"                   666777777888                   ",
"                      666666                      ",
"                      666666                      ",
"                      666666                      "
};
