/* XPM */
static char *result[] = {
/* columns rows colors chars-per-pixel */
"50 50 4 1 ",
"  c #262B44",
". c #8B9BB4",
"X c #C0CBDC",
"o c #52607C",
/* pixels */
"    ..XXXXXXXXXXXXXXXXXXXXXXXXXXXXXXXXXXXXXXXXXXXX",
"    oooooooooooooooooooooooooooooooooooooooooooooo",
"    oooooooooooooooooooooooooooooooooooooooooooooo",
"    XX............................................",
"    XX............................................",
"    XX............................................",
"    XX............................................",
"    ..XXXXXXXXXXXXXXXXXXXXXXXXXXXXXXXXXXXXXXXXXXXX",
"    ..XXXXXXXXXXXXXXXXXXXXXXXXXXXXXXXXXXXXXXXXXXXX",
"    oooooooooooooooooooooooooooooooooooooooooooooo",
"    oooooooooooooooooooooooooooooooooooooooooooooo",
"    XX............................................",
"    XX............................................",
"    XX..............XX............................",
"    XX..............XX............................",
"    ..XXXXXXXXXXXXXXXXXXXXXXXXXXXXXXXXXXXXXXXXXXXX",
"    ..XXXXXXXXXXXXXXXXXXXXXXXXXXXXXXXXXXXXXXXXXXXX",
"    oooooooooooooooooooooooooooooooooooooooooooooo",
"    oooooooooooooooooooooooooooooooooooooooooooooo",
"    XX............................................",
"    XX............................................",
"    XX............................................",
"    XX............................................",
"    ..XXXXXXXXXXXXXXXXXXXXXXXXXXXXXXXXXXXXXXXXXXXX",
"    ..XXXXXXXXXXXXXXXXXXXXXXXXXXXXXXXXXXXXXXXXXXXX",
"    oooooooooooooooooooooooooooooooooooooooooooooo",
"    oooooooooooooooooooooooooooooooooooooooooooooo",
"    XX............................................",
"    XX............................................",
"    XX..............XX............................",
"    XX..............XX............................",
"    ..XXXXXXXXXXXXXXXXXXXXXXXXXXXXXXXXXXXXXXXXXXXX",
"    ..XXXXXXXXXXXXXXXXXXXXXXXXXXXXXXXXXXXXXXXXXXXX",
"    oooooooooooooooooooooooooooooooooooooooooooooo",
"    oooooooooooooooooooooooooooooooooooooooooooooo",
"    XX............................................",
"    XX............................................",
"    XX............................................",
"    XX............................................",
"    ..XXXXXXXXXXXXXXXXXXXXXXXXXXXXXXXXXXXXXXXXXXXX",
"    ..XXXXXXXXXXXXXXXXXXXXXXXXXXXXXXXXXXXXXXXXXXXX",
"    oooooooooooooooooooooooooooooooooooooooooooooo",
"    oooooooooooooooooooooooooooooooooooooooooooooo",
"    XX............................................",
"    XX............................................",
"    XX..............XX............................",
"    XX..............XX............................",
"    ..XXXXXXXXXXXXXX..XXXXXXXXXXXXXXXXXXXXXXXXXXXX",
"    ..XXXXXXXXXXXXXX..XXXXXXXXXXXXXXXXXXXXXXXXXXXX",
"    oooooooooooooooooooooooooooooooooooooooooooooo"
};
