/* XPM */
static char *result[] = {
/* columns rows colors chars-per-pixel */
"50 50 6 1 ",
"  c #EAA56C",
". c #3F2631",
"X c #8B9BB4",
"o c #C0CBDC",
"O c #E72C39",
"+ c #CF8254",
/* pixels */
"               .......................            ",
"               .......................            ",
"             ...........................          ",
"             ...........................          ",
"           .......XXooooooooooooooXX......        ",
"           .......XXooooooooooooooXX......        ",
"           .....XXooooooooooooooooooXX....        ",
"           .....XXooooooooooooooooooXX....        ",
"           .....oooooooooooooooooooooo....        ",
"           .....oooooooooooooooooooooo....        ",
"           .....oooooooooooooooooooooo....        ",
"           .....oooooooooooooooooooooo....        ",
"           .....oooooooooooooooooooooo....        ",
"           .....oooooooooooooooooooooo....        ",
"           .....oooooooooooooooooooooo....        ",
"           .....oooooooo...oooo...oooo....        ",
"           .....oooooooo.OO.oo.OO.oooo....        ",
"           .....oooooooo.OO.oo.OO.oooo....        ",
"           .....oooooooo....oo....oooo....        ",
"           .....oooooooooooooooooooooo....        ",
"           .....oooooooooooooooooooooo....        ",
"           .....oooooooooo......oooooo....        ",
"           .....oooooooooo......oooooo....        ",
"         .......oooooooooo......oooooo......      ",
"         .......oooooooooo......oooooo......      ",
"       .........oooooooooo..oo..oooooo........    ",
"       .........oooooooooo..oo..oooooo........    ",
"       .....oo..oooooooooooooooooooooo..oo....    ",
"       .....oo..oooooooooooooooooooooo..oo....    ",
"       .....ooooXXooooooooooooooooooXXoooo....    ",
"       .....ooooXXooooooooooooooooooXXoooo....    ",
"       .....ooooXXooooooooooooooooooXXoooo....    ",
"       .....ooooXXooooooooooooooooooXXoooo....    ",
"       .....ooooXXooooooooooooooooooXXoooo....    ",
"       .....ooooXXooooooooooooooooooXXoooo....    ",
"       ....ooooXXooooooooooooooooooXXoooo.....    ",
"       ....ooooXXooooooooooooooooooXXoooo.....    ",
"       ....ooooXXooooooooooooooooooXXoooo.....    ",
"       ....ooooXXooooooooooooooooooXXoooo.....    ",
"       ....ooooXXooooooooooooooooooXXoooo.....    ",
"       ....oooo..oooooooooooooooooo..oooo.....    ",
"       ....oooo..oooooooooooooooooo..oooo.....    ",
"       ......oo....XXXXXXXXXXXXXXXX..oo.......    ",
"       ......oo....XXXXXXXXXXXXXXXX..oo.......    ",
"         ........oooooooooooooooo...........      ",
"         ........oooooooooooooooo...........      ",
"              +++++++++++++++++++++++++           ",
"              +++++++++++++++++++++++++           ",
"                  +++++++++++++++++               ",
"                  +++++++++++++++++               "
};
