/* XPM */
static char *result[] = {
/* columns rows colors chars-per-pixel */
"50 50 6 1 ",
"  c #EAA56C",
". c #3F2631",
"X c #8B9BB4",
"o c #C0CBDC",
"O c #E72C39",
"+ c #CF8254",
/* pixels */
"                                                  ",
"                                                  ",
"               ......................             ",
"               ......................             ",
"             ..........................           ",
"             ..........................           ",
"           ......XXooooooooooooooXX......         ",
"           ......XXooooooooooooooXX......         ",
"           ....XXooooooooooooooooooXX....         ",
"           ....XXooooooooooooooooooXX....         ",
"           ....oooooooooooooooooooooo....         ",
"           ....oooooooooooooooooooooo....         ",
"           ....oooooooooooooooooooooo....         ",
"           ....oooooooooooooooooooooo....         ",
"           ....oooooooooooooooooooooo....         ",
"           ....oooooooooooooooooooooo....         ",
"           ....oooooooooooooooooooooo....         ",
"           ....oooo...oooo...oooooooo....         ",
"           ....oooo.OO.oo.OO.oooooooo....         ",
"           ....oooo.OO.oo.OO.oooooooo....         ",
"           ....oooo....oo....oooooooo....         ",
"           ....oooooooooooooooooooooo....         ",
"           ....oooooooooooooooooooooo....         ",
"           ....oooooo......oooooooooo....         ",
"           ....oooooo......oooooooooo....         ",
"         ......oooooo......oooooooooo......       ",
"         ......oooooo......oooooooooo......       ",
"       ........oooooo..oo..oooooooooo........     ",
"       ........oooooo..oo..oooooooooo........     ",
"       ....oo..oooooooooooooooooooooo..oo....     ",
"       ....oo..oooooooooooooooooooooo..oo....     ",
"       ....ooooXXooooooooooooooooooXXoooo....     ",
"       ....ooooXXooooooooooooooooooXXoooo....     ",
"       ....ooooXXooooooooooooooooooXXoooo....     ",
"       ....ooooXXooooooooooooooooooXXoooo....     ",
"       ....ooooXXooooooooooooooooooXXoooo....     ",
"       ....ooooXXooooooooooooooooooXXoooo....     ",
"       .....ooooXXooooooooooooooooooXXoooo....    ",
"       .....ooooXXooooooooooooooooooXXoooo....    ",
"       .....ooooXXooooooooooooooooooXXoooo....    ",
"       .....ooooXXooooooooooooooooooXXoooo....    ",
"       .....ooooXXooooooooooooooooooXXoooo....    ",
"       .....oooo..oooooooooooooooooo..oooo....    ",
"        ....oooo..oooooooooooooooooo..oooo....    ",
"        ......oo..XXXXXXXXXXXXXXXX....oo......    ",
"        ......oo..XXXXXXXXXXXXXXXX....oo......    ",
"          ..........oooooooooooooooo........      ",
"          ..........oooooooooooooooo........      ",
"                +++++++++++++++++++++++           ",
"                +++++++++++++++++++++++           "
};
