/* XPM */
static char *result[] = {
/* columns rows colors chars-per-pixel */
"50 50 23 1 ",
"  c #EAA56C",
". c #631B4F",
"X c #F743C6",
"o c #AC2F8A",
"O c #4A143B",
"+ c #151615",
"@ c #2B2D2B",
"# c #FFBD99",
"$ c black",
"% c #E59A72",
"& c #4C3325",
"* c #4C1B38",
"= c #942240",
"- c #993570",
"; c #C62E55",
": c #66244B",
"> c #CC4796",
", c #FF59BB",
"< c #5D2044",
"1 c #250D1B",
"2 c #4A1A36",
"3 c #4C1437",
"4 c #CC3695",
/* pixels */
"                   ............                   ",
"                   ............                   ",
"                ...XXXooooooXXX...                ",
"                ...XXXooooooXXX...                ",
"                ...XXXooooooXXX...                ",
"             ...XXXooooooooooooXXX...             ",
"             ...XXXooooooooooooXXX...             ",
"             ...XXXooooooooooooXXX...             ",
"          ...ooooooOOOOOOOOOOOOoooooo...          ",
"          ...ooooooOOOOOOOOOOOOoooooo...          ",
"          ...ooooooOOOOOOOOOOOOoooooo...          ",
"          ...oooOOOOOO......OOOOOOooo...          ",
"          ...oooOOOOOO......OOOOOOooo...          ",
"          ...oooOOOOOO......OOOOOOooo...          ",
"          +++OOOOOO............OOOOOO+++          ",
"          +++OOOOOO............OOOOOO+++          ",
"          +++OOOOOO............OOOOOO+++          ",
"       +++@@@@@@###$$$######$$$###@@@@@@+++       ",
"       +++@@@@@@###$$$######$$$###@@@@@@+++       ",
"       +++@@@@@@###$$$######$$$###@@@@@@+++       ",
"       +++@@@@@@%%%$$$######$$$%%%@@@@@@+++       ",
"       +++@@@@@@%%%$$$######$$$%%%@@@@@@+++       ",
"       +++@@@@@@%%%$$$######$$$%%%@@@@@@+++       ",
"          +++@@@&&&%%%%%%%%%%%%&&&@@@+++          ",
"          +++@@@&&&%%%%%%%%%%%%&&&@@@+++          ",
"          +++@@@&&&%%%%%%%%%%%%&&&@@@+++          ",
"             ***===&&&&&&&&&&&&===***             ",
"             ***===&&&&&&&&&&&&===***             ",
"             ***===&&&&&&&&&&&&===***             ",
"          ***---;;;============;;;---***          ",
"          ***---;;;============;;;---***          ",
"          ***---;;;============;;;---***          ",
"       :::>>>>>>;;;;;;;;;;;;;;;;;;>>>>>>:::       ",
"       :::>>>>>>;;;;;;;;;;;;;;;;;;>>>>>>:::       ",
"       :::>>>>>>;;;;;;;;;;;;;;;;;;>>>>>>:::       ",
"       :::,,,>>>:::;;;;;;;;;;;;:::>>>,,,:::       ",
"       :::,,,>>>:::;;;;;;;;;;;;:::>>>,,,:::       ",
"       :::,,,>>>:::;;;;;;;;;;;;:::>>>,,,:::       ",
"          ::::::<<<<<<<<<<<<<<<<<<::::::          ",
"          ::::::<<<<<<<<<<<<<<<<<<::::::          ",
"          ::::::<<<<<<<<<<<<<<<<<<::::::          ",
"             111<<<<<<222222<<<<<<111             ",
"             111<<<<<<222222<<<<<<111             ",
"             111<<<<<<222222<<<<<<111             ",
"             333444444111111444444333             ",
"             333444444111111444444333             ",
"             333444444111111444444333             ",
"                333333      333333                ",
"                333333      333333                ",
"                333333      333333                "
};
