/* XPM */
static char *result[] = {
/* columns rows colors chars-per-pixel */
"50 50 7 1 ",
"  c #EAA56C",
". c #3F2631",
"X c #402731",
"o c #8B9BB4",
"O c #C0CBDC",
"+ c #E72C39",
"@ c #CF8254",
/* pixels */
"                                                  ",
"                                                  ",
"                .......XXX............            ",
"                ......................            ",
"              ..........................          ",
"              ..........................          ",
"            ......ooOOOOOOOOOOOOOOoo......        ",
"            ......ooOOOOOOOOOOOOOOoo......        ",
"            ....ooOOOOOOOOOOOOOOOOOOoo....        ",
"            ....ooOOOOOOOOOOOOOOOOOOoo....        ",
"            ....OOOOOOOOOOOOOOOOOOOOOO....        ",
"            ....OOOOOOOOOOOOOOOOOOOOOO....        ",
"            ....OOOOOOOOOOOOOOOOOOOOOO....        ",
"            ....OOOOOOOOOOOOOOOOOOOOOO....        ",
"            ....OOOOOOOOOOOOOOOOOOOOOO....        ",
"            ....OOOOOOOOOOOOOOOOOOOOOO....        ",
"            ....OOOOOOOOOOOOOOOOOOOOOO....        ",
"            ....OOOOOOOO...OOOO...OOOO....        ",
"            ....OOOOOOOO.++.OO.++.OOOO....        ",
"            ....OOOOOOOO.++.OO.++.OOOO....        ",
"            ....OOOOOOOO....OO....OOOO....        ",
"            ....OOOOOOOOOOOOOOOOOOOOOO....        ",
"            ....OOOOOOOOOOOOOOOOOOOOOO....        ",
"            ....OOOOOOOOOO......OOOOOO....        ",
"            ....OOOOOOOOOO......OOOOOO....        ",
"          ......OOOOOOOOOO......OOOOOO......      ",
"          ......OOOOOOOOOO......OOOOOO......      ",
"        ........OOOOOOOOOO..OO..OOOOOO........    ",
"        ........OOOOOOOOOO..OO..OOOOOO........    ",
"        ....OO..OOOOOOOOOOOOOOOOOOOOOO..OO....    ",
"        ....OO..OOOOOOOOOOOOOOOOOOOOOO..OO....    ",
"        ....OOOOooOOOOOOOOOOOOOOOOOOooOOOO....    ",
"        ....OOOOooOOOOOOOOOOOOOOOOOOooOOOO....    ",
"        ....OOOOooOOOOOOOOOOOOOOOOOOooOOOO....    ",
"        ....OOOOooOOOOOOOOOOOOOOOOOOooOOOO....    ",
"        ....OOOOooOOOOOOOOOOOOOOOOOOooOOOO....    ",
"        ....OOOOooOOOOOOOOOOOOOOOOOOooOOOO....    ",
"       ....OOOOooOOOOOOOOOOOOOOOOOOooOOOO.....    ",
"       ....OOOOooOOOOOOOOOOOOOOOOOOooOOOO.....    ",
"       ....OOOOooOOOOOOOOOOOOOOOOOOooOOOO.....    ",
"       ....OOOOooOOOOOOOOOOOOOOOOOOooOOOO.....    ",
"       ....OOOOooOOOOOOOOOOOOOOOOOOooOOOO.....    ",
"       ....OOOO..OOOOOOOOOOOOOOOOOO..OOOO.....    ",
"       ....OOOO..OOOOOOOOOOOOOOOOOO..OOOO....     ",
"       ......OO....oooooooooooooooo..OO......     ",
"       ......OO....oooooooooooooooo..OO......     ",
"         ........OOOOOOOOOOOOOOOO..........       ",
"         ........OOOOOOOOOOOOOOOO..........       ",
"              @@@@@@@@@@@@@@@@@@@@@@@             ",
"              @@@@@@@@@@@@@@@@@@@@@@@             "
};
