/* XPM */
static char *result[] = {
/* columns rows colors chars-per-pixel */
"50 50 27 1 ",
"  c #EAA56C",
". c #631B4F",
"X c #F743C6",
"o c #AC2F8A",
"O c #942877",
"+ c #4A143B",
"@ c #151615",
"# c #664432",
"$ c #E59A72",
"% c black",
"& c #FFBD99",
"* c #393C3A",
"= c #2B2D2B",
"- c #4C3325",
"; c #4A1120",
": c #942240",
"> c #63172A",
", c #66244B",
"< c #FF59BB",
"1 c #CC4796",
"2 c #250D1B",
"3 c #5D2044",
"4 c #4C1B38",
"5 c #4A1A36",
"6 c #661B4A",
"7 c #CC3695",
"8 c #4C1437",
/* pixels */
"                   ............                   ",
"                   ............                   ",
"                ...XXXXXXoooooo...                ",
"                ...XXXXXXoooooo...                ",
"                ...XXXXXXoooooo...                ",
"             ...XXXooooooooooooOOO...             ",
"             ...XXXooooooooooooOOO...             ",
"             ...XXXooooooooooooOOO...             ",
"             ++++++oooooooooOOOOOOOOO...          ",
"             ++++++oooooooooOOOOOOOOO...          ",
"             ++++++oooooooooOOOOOOOOO...          ",
"          ......++++++OOOOOOOOOOOOOOO...          ",
"          ......++++++OOOOOOOOOOOOOOO...          ",
"          ......++++++OOOOOOOOOOOOOOO...          ",
"       +++++++++++++++...............@@@          ",
"       +++++++++++++++...............@@@          ",
"       +++++++++++++++...............@@@          ",
"             ###$$$%%%&&&******======@@@          ",
"             ###$$$%%%&&&******======@@@          ",
"             ###$$$%%%&&&******======@@@          ",
"             ---$$$%%%$$$***============@@@       ",
"             ---$$$%%%$$$***============@@@       ",
"             ---$$$%%%$$$***============@@@       ",
"                ---$$$==================@@@       ",
"                ---$$$==================@@@       ",
"                ---$$$==================@@@       ",
"                   ---@@@@@@@@@@@@@@@@@@          ",
"                   ---@@@@@@@@@@@@@@@@@@          ",
"                   ---@@@@@@@@@@@@@@@@@@          ",
"                ;;;:::::::::>>>;;;                ",
"                ;;;:::::::::>>>;;;                ",
"                ;;;:::::::::>>>;;;                ",
"                ;;;,,,<<<111,,,;;;                ",
"                ;;;,,,<<<111,,,;;;                ",
"                ;;;,,,<<<111,,,;;;                ",
"                ;;;,,,<<<111,,,;;;                ",
"                ;;;,,,<<<111,,,;;;                ",
"                ;;;,,,<<<111,,,;;;                ",
"                222333,,,444555222                ",
"                222333,,,444555222                ",
"                222333,,,444555222                ",
"                222333333555555222                ",
"                222333333555555222                ",
"                222333333555555222                ",
"                   666777777888                   ",
"                   666777777888                   ",
"                   666777777888                   ",
"                      888888                      ",
"                      888888                      ",
"                      888888                      "
};
