/* XPM */
static char *result[] = {
/* columns rows colors chars-per-pixel */
"50 50 9 1 ",
"  c #EAA56C",
". c #F2C981",
"X c #3F2631",
"o c #FDBE53",
"O c #E38628",
"+ c #BD6C4A",
"@ c #773833",
"# c #C0CBDC",
"$ c #CF8254",
/* pixels */
"                  .                               ",
"     XXXXXX                              XXXXXX   ",
"     XooooX         o                    XooooX   ",
"     XooOoXXX      .o.                 XXXoOooX   ",
"     XoOOoooX     ooooo                XoooOOoX   ",
"     XooooOoXXX    .o.   o           XXXoOooooX   ",
"     XXXoOOoooX     o                XoooOOoXXX   ",
"       XooooOoXXXXXXXXXXXXXXXoXXXXXXXXoOooooX     ",
"       XXXoOOoooXXXXXXXXXXXoXXXXXXXXoooOOoXXX     ",
"         XooooOoXXXXXXXXXXo.oXXXXXXXoOooooX       ",
"         XXXoOOoXXXXXXXXXXXoXXXXXXXXoOOoXXX       ",
"        O XXooooX++++++++++++++++++XooooXX        ",
"          XXXXXXX++++++++++++++++++XXXXXXX        ",
"          XXXX++++@@@@@@@@@@@@@@@@++++XXXX        ",
"          XXXX++++@@@@@@@@@@@@@@@@++++XXXX        ",
"     o    XXXX++@@XXXXXXXXXXXXXXXX@@++XoXX        ",
"    ooo   XXoX++@@XXXXXXXXXXXXXXXX@@++oooX        ",
"     o    XXXX++@@XXXXXXXXXXXXXXXX@@++XoXX        ",
"          XXXX++@@XXXXXXXXXXXXXXXX@@++XXXo        ",
"          XXXX++@@XXXXXXXXXXXXXXXX@@++X.XX        ",
"          XXXX++@@XXXXXXXXXXXXXXXX@@++XXXX        ",
"    o     XXXX++++XXXXXXXXXXXXXXXX++++XXXXO       ",
"          XXXXXXX+XXXXXXXXXXXXXXXX+XXXXXXX        ",
"          XXooooX++++++++++++++++++XooooXX        ",
"         XXXoOOoX++++++++++++++++++XoOOoXX        ",
"        XXooooOoX@@@@@@@@@@@@@@@@@@XoOooooXX      ",
"       XXXoOOoooX@@@@@@@@@@@@@@@@@@XoooOOoXX      ",
"       XooooOoXXX##################XXXoOooooX     ",
"     XXXoOOoooX+####################+XoooOOoXXX   ",
"     XooooOoXXX++++++++++++++++++++++XXXoOooooX   ",
"     XoOOoooX++++.+++++++++++++++++++++XoooOOoX   ",
"     XooOoXX+++++++++++++++++++++++++++XXXoOooX   ",
"     XooooXX++++++++++++++++++++++++++++XXooooX   ",
"     XXXXXXX++++++++++++++++++++++++++++XXXXXXX   ",
"        XXXX++++++++++++++++++++++++++++XXXX      ",
"        XXXX++++++++++++++++      ++++++XXXX      ",
"        XXXX++++++++++++++++      ++++++XXXX      ",
"        XXXXXX++++++++++++++      ++++XXXXXX      ",
"        XXXXXX++++++++++++++      ++++XXXXXX      ",
"        $$XXXXXXXX++++++++++++++++XXXXXXXX$$      ",
"        $$XXXXXXXX++++++++++++++++XXXXXXXX$$      ",
"          $$XXXXXXXXXXXXXXXXXXXXXXXXXXXX$$        ",
"          $$XXXXXXXXXXXXXXXXXXXXXXXXXXXX$$        ",
"            $$$$XXXXXXXXXXXXXXXXXXXX$$$$$         ",
"            $$$$XXXXXXXXXXXXXXXXXXXX$$$$$         ",
"                $$$$$$$$$$$$$$$$$$$$$$            ",
"                $$$$$$$$$$$$$$$$$$$$$$            ",
"                   $$$$$$$$$$$$$$$$$              ",
"                   $$$$$$$$$$$$$$$$$              ",
"                     $$$$$$$$$$$$$                "
};
