/* XPM */
static char *result[] = {
/* columns rows colors chars-per-pixel */
"50 50 12 1 ",
"  c #EAA56C",
". c #F2C981",
"X c #FDBE53",
"o c #E38628",
"O c #D6A173",
"+ c #3F2631",
"@ c #BF855D",
"# c #BD6C4A",
"$ c #773833",
"% c white",
"& c #C0CBDC",
"* c #CF8254",
/* pixels */
"                  .                               ",
"                                                  ",
"                    X                             ",
"                   .X.                            ",
"                  XXXXXo                          ",
"                   .X.o  Xo                       ",
"                    Xo               O            ",
"              ++++++o++++++++X++++++++            ",
"              +++++++++++++X++o+++++++            ",
"            ++++++++++++++X.X+++++++++++          ",
"         @  +++++++++++++++Xo+++++++++++          ",
"        o ++++++####################++++++        ",
"          ++++++####################++++++        ",
"          ++++####$$$$$$$$$$$$$$$$####++++        ",
"          ++++####$$$$$$$$$$$$$$$$####++++        ",
"     X    ++++##$$+%++++++++++++++$$##+X++        ",
"    XXX   ++X+##$$%%%+++++++++++++$$##XXX+        ",
"     Xoo  ++++##$$+%++++++++++++++$$##+X++        ",
"      o   ++++##$$++++++++++++++++$$##+++X        ",
"          ++++##$$++++++++++++++++$$##+.++o       ",
"          ++++##$$++++++++++++++++$$##++++        ",
"    X     ++++####++++++++++++++++####++++o       ",
"          ++++####++++++++++++++++####++++        ",
"          ++++$$####################$$++++        ",
"          ++++$$####################$$++++        ",
"        ++++++&&$$$$$$$$$$$$$$$$$$$$&&++++++      ",
"        ++++++&&$$$$$$$$$$$$$$$$$$$$&&++++++      ",
"        ++++####&&&&&&&&&&&&&&&&&&&&####++++      ",
"        ++++####&&&&&&&&&&&&&&&&&&&&####++++      ",
"        ++++#########.##################++++      ",
"        ++++#####.#%#X#%################++++      ",
"        ++++########%X%#################++++      ",
"        ++++######..XoX..###############++++      ",
"        ++++########%X%#################++++      ",
"        ++++#######%#X#%################++++      ",
"        ++++#########.######      ######++++      ",
"        ++++################      ######++++      ",
"        ++++++##############      ####++++++      ",
"        ++++++##############      ####++++++      ",
"        **++++++++################++++++++**      ",
"        **++++++++################++++++++**      ",
"          **++++++++++++++++++++++++++++**        ",
"          **++++++++++++++++++++++++++++**        ",
"            ****++++++++++++++++++++*****         ",
"            ****++++++++++++++++++++*****         ",
"                **********************            ",
"                **********************            ",
"                   *****************              ",
"                   *****************              ",
"                     *************                "
};
