/* XPM */
static char *result[] = {
/* columns rows colors chars-per-pixel */
"50 50 7 1 ",
"  c #EAA56C",
". c #D6A173",
"X c #3F2631",
"o c #BD6C4A",
"O c #773833",
"+ c #C0CBDC",
"@ c #CF8254",
/* pixels */
"                                                  ",
"                                                  ",
"                                                  ",
"                                                  ",
"                                                  ",
"                                                  ",
"                                     .            ",
"              XXXXXXXXXXXXXXXXXXXXXXXX            ",
"              XXXXXXXXXXXXXXXXXXXXXXXX            ",
"            XXXXXXXXXXXXXXXXXXXXXXXXXXXX          ",
"            XXXXXXXXXXXXXXXXXXXXXXXXXXXX          ",
"          XXXXXXooooooooooooooooooooXXXXXX        ",
"          XXXXXXooooooooooooooooooooXXXXXX        ",
"          XXXXooooOOOOOOOOOOOOOOOOooooXXXX        ",
"          XXXXooooOOOOOOOOOOOOOOOOooooXXXX        ",
"          XXXXooOOXXXXXXXXXXXXXXXXOOooXXXX        ",
"          XXXXooOOXXXXXXXXXXXXXXXXOOooXXXX        ",
"          XXXXooOOXXXXXXXXXXXXXXXXOOooXXXX        ",
"          XXXXooOOXXXXXXXXXXXXXXXXOOooXXXX        ",
"          XXXXooOOXXXXXXXXXXXXXXXXOOooXXXX        ",
"          XXXXooOOXXXXXXXXXXXXXXXXOOooXXXX        ",
"          XXXXooooXXXXXXXXXXXXXXXXooooXXXX        ",
"          XXXXooooXXXXXXXXXXXXXXXXooooXXXX        ",
"          XXXXOOooooooooooooooooooooOOXXXX        ",
"          XXXXOOooooooooooooooooooooOOXXXX        ",
"        XXXXXX++OOOOOOOOOOOOOOOOOOOO++XXXXXX      ",
"        XXXXXX++OOOOOOOOOOOOOOOOOOOO++XXXXXX      ",
"        XXXXoooo++++++++++++++++++++ooooXXXX      ",
"        XXXXoooo++++++++++++++++++++ooooXXXX      ",
"        XXXXooooooooooooooooooooooooooooXXXX      ",
"        XXXXooooooooooooooooooooooooooooXXXX      ",
"        XXXXooooooooooooooooooooooooooooXXXX      ",
"        XXXXooooooooooooooooooooooooooooXXXX      ",
"        XXXXooooooooooooooooooooooooooooXXXX      ",
"        XXXXooooooooooooooooooooooooooooXXXX      ",
"        XXXXoooooooooooooooo      ooooooXXXX      ",
"        XXXXoooooooooooooooo      ooooooXXXX      ",
"        XXXXXXoooooooooooooo      ooooXXXXXX      ",
"        XXXXXXoooooooooooooo      ooooXXXXXX      ",
"        @@XXXXXXXXooooooooooooooooXXXXXXXX@@      ",
"        @@XXXXXXXXooooooooooooooooXXXXXXXX@@      ",
"          @@XXXXXXXXXXXXXXXXXXXXXXXXXXXX@@        ",
"          @@XXXXXXXXXXXXXXXXXXXXXXXXXXXX@@        ",
"            @@@@XXXXXXXXXXXXXXXXXXXX@@@@@         ",
"            @@@@XXXXXXXXXXXXXXXXXXXX@@@@@         ",
"                @@@@@@@@@@@@@@@@@@@@@@            ",
"                @@@@@@@@@@@@@@@@@@@@@@            ",
"                   @@@@@@@@@@@@@@@@@              ",
"                   @@@@@@@@@@@@@@@@@              ",
"                     @@@@@@@@@@@@@                "
};
